<?xml version="1.0" standalone="no"?>
<!DOCTYPE svg PUBLIC "-//W3C//DTD SVG 20010904//EN"
 "http://www.w3.org/TR/2001/REC-SVG-20010904/DTD/svg10.dtd">
<svg version="1.0" xmlns="http://www.w3.org/2000/svg"
 width="500.000000pt" height="100.000000pt" viewBox="0 0 500.000000 100.000000"
 preserveAspectRatio="xMidYMid meet">

<g transform="translate(0.000000,100.000000) scale(0.100000,-0.100000)"
fill="#000000" stroke="none">
<path d="M0 500 l0 -500 2500 0 2500 0 0 500 0 500 -2500 0 -2500 0 0 -500z
m1060 437 c80 -19 123 -40 127 -63 1 -5 9 -40 17 -77 9 -38 16 -75 16 -83 0
-21 -24 -17 -56 11 -16 14 -35 25 -41 25 -7 0 -13 4 -13 9 0 9 -37 25 -50 23
-3 0 -12 6 -21 14 -9 8 -18 11 -22 8 -3 -3 -12 -2 -19 2 -7 5 -17 9 -23 11
-14 3 -52 12 -72 18 -64 17 -93 22 -97 17 -4 -3 -6 0 -6 5 0 6 -8 10 -17 8
-10 -1 -27 2 -37 8 -18 9 -16 11 15 25 19 8 37 16 41 16 3 1 9 4 13 8 4 4 13
4 21 1 8 -3 14 1 14 8 0 7 3 10 6 7 3 -3 16 -3 30 1 24 6 144 5 174 -2z m270
-159 c1 14 63 -113 79 -164 12 -36 17 -76 14 -135 -3 -102 -4 -109 -15 -109
-5 0 -6 -5 -3 -10 4 -6 1 -18 -7 -27 -7 -9 -12 -18 -11 -19 5 -8 -20 -64 -28
-64 -5 0 -9 -7 -9 -16 0 -8 -4 -12 -10 -9 -5 3 -10 2 -10 -4 0 -19 -51 -70
-108 -108 -55 -37 -132 -68 -132 -54 0 4 20 30 45 57 25 27 45 54 45 61 0 7 5
13 10 13 6 0 10 7 10 15 0 8 4 15 8 15 14 0 64 118 80 189 10 45 4 183 -9 195
-2 2 -3 50 -3 105 1 56 -2 101 -6 101 -4 0 -7 7 -7 17 0 11 11 5 34 -20 18
-20 33 -33 33 -29z m-620 38 c0 3 8 0 18 -5 9 -5 31 -11 47 -14 69 -13 81 -18
98 -39 10 -13 26 -32 35 -44 9 -11 25 -35 34 -52 16 -29 16 -32 0 -41 -11 -6
-26 -5 -44 5 -15 8 -28 11 -28 8 0 -4 -8 0 -18 9 -10 10 -21 15 -24 12 -3 -3
-18 1 -34 10 -16 8 -36 15 -45 15 -9 0 -19 3 -23 7 -3 4 -16 8 -28 10 -12 2
-27 8 -35 14 -7 6 -13 8 -13 4 0 -4 -7 -2 -15 5 -8 7 -15 9 -15 5 0 -4 -6 -2
-13 4 -8 6 -17 8 -20 4 -4 -3 -7 -1 -7 5 0 7 4 12 8 12 5 0 15 11 22 25 7 13
17 22 21 20 4 -3 10 3 14 14 5 16 11 18 35 11 17 -5 30 -7 30 -4z m2852 -153
l3 -105 28 22 c68 54 189 11 212 -76 12 -45 8 -145 -7 -173 -23 -44 -69 -81
-102 -83 -56 -2 -91 3 -107 18 -21 19 -26 18 -32 -6 -4 -15 -14 -20 -41 -20
l-36 0 0 268 0 268 40 -4 39 -4 3 -105z m-2575 80 c3 4 11 3 17 -2 6 -5 28
-14 49 -20 20 -7 37 -16 37 -21 0 -5 8 -11 18 -14 10 -4 36 -21 56 -40 l37
-33 -27 -56 c-29 -58 -53 -80 -55 -49 -1 29 -34 76 -65 92 -16 8 -30 15 -31
15 -1 0 -4 12 -7 27 -4 26 -24 68 -35 78 -3 3 -13 14 -21 25 -14 19 -14 19 3
6 9 -8 20 -11 24 -8z m763 -99 c0 -87 9 -117 24 -78 3 8 11 12 16 9 6 -4 9 -2
8 3 -2 5 34 44 80 88 80 77 84 79 132 79 l49 0 -109 -111 c-61 -61 -110 -115
-110 -121 0 -5 15 -23 33 -40 17 -16 50 -51 72 -78 22 -26 59 -68 83 -93 23
-25 42 -49 42 -54 0 -4 -22 -8 -49 -8 -52 0 -52 0 -106 66 -64 78 -144 156
-154 149 -7 -4 -11 -47 -11 -111 l0 -104 -40 0 -39 0 -3 253 -3 252 43 -4 42
-3 0 -94z m676 66 c62 -29 67 -34 96 -95 16 -36 27 -72 24 -80 -3 -8 -1 -15 5
-15 8 0 9 -13 4 -37 -18 -94 -36 -132 -75 -158 -16 -10 -27 -22 -24 -26 2 -4
-8 -10 -23 -14 -16 -3 -31 -11 -34 -17 -4 -5 -27 -11 -53 -12 -25 -2 -49 -6
-53 -9 -3 -4 -41 -7 -84 -7 l-78 0 -3 253 -3 252 118 -2 c109 -2 123 -5 183
-33z m445 28 c1 -7 2 -103 3 -213 l1 -200 100 -5 100 -5 0 -32 0 -33 -142 -3
-142 -2 -3 252 -3 253 43 0 c26 0 42 -5 43 -12z m-2273 -69 c1 -1 5 -2 10 -4
4 -1 15 -5 24 -9 9 -4 22 -9 30 -10 7 -2 26 -8 41 -14 16 -7 34 -12 41 -12 7
0 16 -3 20 -7 4 -5 11 -8 14 -8 4 -1 18 -7 32 -15 14 -7 26 -13 28 -12 11 8
18 -2 15 -22 -5 -23 -8 -24 -62 -21 -31 2 -81 7 -111 10 -30 4 -77 8 -105 9
-45 3 -50 5 -50 27 -1 13 6 41 13 61 12 30 19 37 36 33 12 -2 22 -4 24 -6z
m2667 -70 c28 -2 58 -8 68 -13 33 -19 49 -75 47 -163 -1 -81 12 -129 31 -118
5 4 9 -8 9 -25 0 -18 -6 -33 -15 -36 -22 -9 -85 16 -85 33 0 14 -2 14 -17 2
-36 -29 -60 -36 -105 -34 -39 1 -51 7 -70 30 -27 35 -32 88 -9 113 26 28 91
53 148 56 12 0 27 6 33 12 12 12 2 76 -11 69 -4 -3 -11 -1 -14 5 -8 12 -84 10
-91 -2 -3 -5 -9 -6 -14 -3 -5 3 -11 1 -15 -5 -15 -24 -35 -9 -35 25 0 19 5 35
10 35 17 0 19 1 47 15 14 8 29 12 32 10 4 -2 29 -4 56 -6z m797 -10 c35 -14
58 -32 58 -46 0 -17 -42 -46 -50 -34 -3 6 -16 13 -28 16 -12 2 -26 6 -31 10
-18 10 -60 -13 -56 -32 2 -10 4 -21 4 -25 1 -5 4 -7 9 -6 7 1 43 -12 102 -40
43 -20 54 -36 56 -84 1 -29 -5 -43 -31 -68 -19 -18 -38 -29 -44 -26 -6 4 -11
3 -11 -2 0 -10 -84 -9 -117 2 -13 4 -23 12 -23 17 0 5 -6 9 -14 9 -24 0 -28
18 -10 49 l17 29 36 -21 c44 -27 74 -32 101 -17 42 22 -2 69 -82 85 -23 5 -65
34 -71 48 -10 28 -1 84 18 107 37 46 99 57 167 29z m-2827 -119 c-2 -8 -6 -26
-9 -40 -3 -14 -7 -34 -9 -45 -7 -28 -60 -139 -69 -143 -5 -2 -8 -10 -8 -18 0
-8 -4 -14 -10 -14 -5 0 -10 -5 -10 -11 0 -18 -135 -148 -165 -159 -15 -6 -32
-7 -38 -3 -13 8 -28 11 -64 15 -29 3 -29 10 -1 28 25 18 115 106 141 138 10
13 20 36 24 53 3 16 10 32 14 35 5 3 7 9 4 14 -3 5 9 19 27 32 72 50 111 86
143 130 13 19 22 24 27 15 4 -7 6 -19 3 -27z m-584 14 c41 -4 85 -8 99 -9 14
-2 35 -4 48 -4 12 -1 22 -5 22 -11 0 -5 -3 -9 -7 -9 -5 1 -11 0 -15 -1 -5 -1
-12 -4 -18 -5 -5 -1 -12 -4 -15 -5 -3 -1 -9 -4 -15 -5 -5 -1 -11 -3 -12 -5 -2
-1 -11 -3 -20 -6 -10 -2 -26 -6 -35 -8 -10 -3 -19 -5 -20 -5 -2 -1 -5 -1 -8
-1 -3 0 -21 -6 -40 -14 -19 -8 -35 -13 -35 -10 0 3 -9 0 -19 -5 -26 -14 -40 4
-46 62 -4 44 -3 46 23 49 15 2 30 3 33 1 3 -1 39 -5 80 -9z m233 -117 l23 -25
-71 -32 c-39 -18 -106 -49 -148 -70 -55 -26 -78 -33 -78 -23 0 8 -4 11 -10 8
-5 -3 -10 -1 -10 5 0 7 -9 23 -20 37 -20 26 -27 54 -12 52 4 -1 9 0 12 1 7 2
31 8 64 15 16 3 37 10 46 15 9 5 30 12 46 15 38 8 58 13 62 15 1 2 6 3 11 4 5
0 12 4 16 8 12 12 46 -1 69 -25z m69 -91 c-21 -34 -108 -124 -145 -151 -48
-35 -54 -35 -104 -4 l-48 31 90 49 c49 27 96 49 104 49 8 1 30 9 49 19 37 20
64 23 54 7z"/>
<path d="M3626 533 c-44 -11 -59 -39 -59 -109 0 -61 2 -69 28 -92 22 -18 35
-22 59 -18 17 4 36 13 42 21 6 8 14 12 17 8 8 -7 10 15 10 95 0 40 -5 58 -19
72 -22 21 -51 29 -78 23z"/>
<path d="M2212 500 l3 -175 45 0 c98 1 153 25 182 78 21 40 29 126 14 146 -6
8 -10 17 -9 20 1 3 -6 20 -17 38 -26 45 -69 64 -151 66 l-69 2 2 -175z"/>
<path d="M3231 386 c-44 -17 -58 -42 -37 -65 18 -20 72 -20 92 1 7 7 14 27 16
43 4 35 -16 41 -71 21z"/>
</g>
</svg>
