<svg width="60px" height="60px" viewBox="0 0 24 24" fill="none" xmlns="http://www.w3.org/2000/svg">
<path d="M16 7C16 9.20914 14.2091 11 12 11C9.79086 11 8 9.20914 8 7C8 4.79086 9.79086 3 12 3C14.2091 3 16 4.79086 16 7Z" stroke="black" stroke-width="1.5" class="my-path"/>
<path d="M11.9998 14C9.15153 14 6.65091 15.3024 5.23341 17.2638C4.48341 18.3016 4.10841 18.8204 4.6654 19.9102C5.2224 21 6.1482 21 7.99981 21H15.9998C17.8514 21 18.7772 21 19.3342 19.9102C19.8912 18.8204 19.5162 18.3016 18.7662 17.2638C17.3487 15.3024 14.8481 14 11.9998 14Z" stroke="black" stroke-width="1.5" class="my-path"/>
</svg>